<?xml version="1.0" encoding="utf-8"?>
<svg width="24" height="24" viewBox="0 0 24 24" fill="none" xmlns="http://www.w3.org/2000/svg">
  <g>
    <path d="M2 0L22 0C23.1047 0 24 0.89528 24 2L24 22C24 23.1047 23.1047 24 22 24L2 24C0.89528 24 0 23.1047 0 22L0 2C0 0.89528 0.89528 0 2 0L2 0Z" fill="#050D24" />
    <path d="M0 9C0 4.02944 4.02944 0 9 0C13.9706 0 18 4.02944 18 9C18 13.9706 13.9706 18 9 18C4.02944 18 0 13.9706 0 9Z" fill="none" stroke-width="1" stroke="#0D2147" transform="translate(3 3)" />
    <path d="M0 5C0 2.23858 2.23858 0 5 0C7.76142 0 10 2.23858 10 5C10 7.76142 7.76142 10 5 10C2.23858 10 0 7.76142 0 5Z" fill="none" stroke-width="1" stroke="#3B81F5" transform="translate(7 7)" />
    <path d="M0 1.5C0 0.671573 0.671573 0 1.5 0C2.32843 0 3 0.671573 3 1.5C3 2.32843 2.32843 3 1.5 3C0.671573 3 0 2.32843 0 1.5Z" fill="#FFFFFF" fill-rule="evenodd" transform="translate(10.5 10.5)" />
    <path d="M10 0L10 3M10 17L10 20M0 10L3 10M17 10L20 10" fill="none" stroke-width="0.5" stroke="#1E458A" stroke-linecap="round" transform="translate(2 2)" />
  </g>
</svg>